<svg class="svg-icon" style="width: 1em; height: 1em;vertical-align: middle;fill: currentColor;overflow: hidden;" viewBox="0 0 1024 1024" version="1.1" xmlns="http://www.w3.org/2000/svg"><path d="M896 469.333333h-45.653333A341.333333 341.333333 0 0 0 554.666667 173.653333V128a42.666667 42.666667 0 0 0-85.333334 0v45.653333A341.333333 341.333333 0 0 0 173.653333 469.333333H128a42.666667 42.666667 0 0 0 0 85.333334h45.653333A341.333333 341.333333 0 0 0 469.333333 850.346667V896a42.666667 42.666667 0 0 0 85.333334 0v-45.653333A341.333333 341.333333 0 0 0 850.346667 554.666667H896a42.666667 42.666667 0 0 0 0-85.333334z m-170.666667 85.333334h38.826667A256 256 0 0 1 554.666667 764.16V725.333333a42.666667 42.666667 0 0 0-85.333334 0v38.826667A256 256 0 0 1 259.84 554.666667H298.666667a42.666667 42.666667 0 0 0 0-85.333334h-38.826667A256 256 0 0 1 469.333333 259.84V298.666667a42.666667 42.666667 0 0 0 85.333334 0v-38.826667A256 256 0 0 1 764.16 469.333333H725.333333a42.666667 42.666667 0 0 0 0 85.333334z m-213.333333-85.333334a42.666667 42.666667 0 1 0 42.666667 42.666667 42.666667 42.666667 0 0 0-42.666667-42.666667z"  /></svg>